{
  "accessors": [
    {
      "bufferView": 2,
      "componentType": 5126,
      "count": 247,
      "max": [
        0.41999998688697815,
        0.41999998688697815,
        1
      ],
      "min": [
        -0.41999998688697815,
        -0.41999998688697815,
        0
      ],
      "type": "VEC3"
    },
    {
      "bufferView": 2,
      "byteOffset": 2964,
      "componentType": 5126,
      "count": 247,
      "max": [
        0.99963605403900146,
        0.99963605403900146,
        1
      ],
      "min": [
        -0.99963605403900146,
        -0.99963605403900146,
        -1
      ],
      "type": "VEC3"
    },
    {
      "bufferView": 3,
      "componentType": 5126,
      "count": 247,
      "max": [
        1,
        1,
        0.86141109466552734,
        1
      ],
      "min": [
        -1,
        -1,
        -0.86140596866607666,
        -1
      ],
      "type": "VEC4"
    },
    {
      "bufferView": 1,
      "componentType": 5126,
      "count": 247,
      "max": [
        0.99311000108718872,
        1
      ],
      "min": [
        0.0021699999924749136,
        0
      ],
      "type": "VEC2"
    },
    {
      "bufferView": 0,
      "componentType": 5125,
      "count": 1152,
      "max": [
        246
      ],
      "min": [
        0
      ],
      "type": "SCALAR"
    },
    {
      "bufferView": 2,
      "byteOffset": 5928,
      "componentType": 5126,
      "count": 231,
      "max": [
        0.24199999868869781,
        0.24199999868869781,
        1
      ],
      "min": [
        -0.24199999868869781,
        -0.24199999868869781,
        0
      ],
      "type": "VEC3"
    },
    {
      "bufferView": 2,
      "byteOffset": 8700,
      "componentType": 5126,
      "count": 231,
      "max": [
        0.99963605403900146,
        0.99963605403900146,
        1
      ],
      "min": [
        -0.99963605403900146,
        -0.99963605403900146,
        -1
      ],
      "type": "VEC3"
    },
    {
      "bufferView": 3,
      "byteOffset": 3952,
      "componentType": 5126,
      "count": 231,
      "max": [
        1,
        1,
        0.97952795028686523,
        1
      ],
      "min": [
        -1,
        -1,
        -0.97952443361282349,
        -1
      ],
      "type": "VEC4"
    },
    {
      "bufferView": 1,
      "byteOffset": 1976,
      "componentType": 5126,
      "count": 231,
      "max": [
        0.99478000402450562,
        1
      ],
      "min": [
        0.0042699999175965786,
        0
      ],
      "type": "VEC2"
    },
    {
      "bufferView": 0,
      "byteOffset": 4608,
      "componentType": 5125,
      "count": 1056,
      "max": [
        230
      ],
      "min": [
        0
      ],
      "type": "SCALAR"
    },
    {
      "bufferView": 2,
      "byteOffset": 11472,
      "componentType": 5126,
      "count": 215,
      "max": [
        0.66447001695632935,
        0.66447001695632935,
        1.1082299947738647
      ],
      "min": [
        -0.66447001695632935,
        -0.66447001695632935,
        0
      ],
      "type": "VEC3"
    },
    {
      "bufferView": 2,
      "byteOffset": 14052,
      "componentType": 5126,
      "count": 215,
      "max": [
        0.99963605403900146,
        0.99963605403900146,
        1
      ],
      "min": [
        -0.99963605403900146,
        -0.99963605403900146,
        -1
      ],
      "type": "VEC3"
    },
    {
      "bufferView": 3,
      "byteOffset": 7648,
      "componentType": 5126,
      "count": 215,
      "max": [
        1,
        1,
        0.95365732908248901,
        1
      ],
      "min": [
        -1,
        -1,
        -0.95361214876174927,
        -1
      ],
      "type": "VEC4"
    },
    {
      "bufferView": 1,
      "byteOffset": 3824,
      "componentType": 5126,
      "count": 215,
      "max": [
        0.99311000108718872,
        1
      ],
      "min": [
        9.9999997473787516e-05,
        0
      ],
      "type": "VEC2"
    },
    {
      "bufferView": 0,
      "byteOffset": 8832,
      "componentType": 5125,
      "count": 960,
      "max": [
        214
      ],
      "min": [
        0
      ],
      "type": "SCALAR"
    },
    {
      "bufferView": 2,
      "byteOffset": 16632,
      "componentType": 5126,
      "count": 231,
      "max": [
        0.24199999868869781,
        0.24199999868869781,
        1
      ],
      "min": [
        -0.24199999868869781,
        -0.24199999868869781,
        0
      ],
      "type": "VEC3"
    },
    {
      "bufferView": 2,
      "byteOffset": 19404,
      "componentType": 5126,
      "count": 231,
      "max": [
        0.99963605403900146,
        0.99963605403900146,
        1
      ],
      "min": [
        -0.99963605403900146,
        -0.99963605403900146,
        -1
      ],
      "type": "VEC3"
    },
    {
      "bufferView": 3,
      "byteOffset": 11088,
      "componentType": 5126,
      "count": 231,
      "max": [
        1,
        1,
        0.97952795028686523,
        1
      ],
      "min": [
        -1,
        -1,
        -0.97952443361282349,
        -1
      ],
      "type": "VEC4"
    },
    {
      "bufferView": 1,
      "byteOffset": 5544,
      "componentType": 5126,
      "count": 231,
      "max": [
        0.99478000402450562,
        1
      ],
      "min": [
        0.0042699999175965786,
        0
      ],
      "type": "VEC2"
    },
    {
      "bufferView": 0,
      "byteOffset": 12672,
      "componentType": 5125,
      "count": 1056,
      "max": [
        230
      ],
      "min": [
        0
      ],
      "type": "SCALAR"
    },
    {
      "bufferView": 2,
      "byteOffset": 22176,
      "componentType": 5126,
      "count": 247,
      "max": [
        0.41999998688697815,
        0.41999998688697815,
        1
      ],
      "min": [
        -0.41999998688697815,
        -0.41999998688697815,
        0
      ],
      "type": "VEC3"
    },
    {
      "bufferView": 2,
      "byteOffset": 25140,
      "componentType": 5126,
      "count": 247,
      "max": [
        0.99963605403900146,
        0.99963605403900146,
        1
      ],
      "min": [
        -0.99963605403900146,
        -0.99963605403900146,
        -1
      ],
      "type": "VEC3"
    },
    {
      "bufferView": 3,
      "byteOffset": 14784,
      "componentType": 5126,
      "count": 247,
      "max": [
        1,
        1,
        0.86141109466552734,
        1
      ],
      "min": [
        -1,
        -1,
        -0.86140596866607666,
        -1
      ],
      "type": "VEC4"
    },
    {
      "bufferView": 1,
      "byteOffset": 7392,
      "componentType": 5126,
      "count": 247,
      "max": [
        0.99311000108718872,
        1
      ],
      "min": [
        0.0021699999924749136,
        0
      ],
      "type": "VEC2"
    },
    {
      "bufferView": 0,
      "byteOffset": 16896,
      "componentType": 5125,
      "count": 1152,
      "max": [
        246
      ],
      "min": [
        0
      ],
      "type": "SCALAR"
    },
    {
      "bufferView": 2,
      "byteOffset": 28104,
      "componentType": 5126,
      "count": 247,
      "max": [
        0.41999998688697815,
        0.41999998688697815,
        1
      ],
      "min": [
        -0.41999998688697815,
        -0.41999998688697815,
        0
      ],
      "type": "VEC3"
    },
    {
      "bufferView": 2,
      "byteOffset": 31068,
      "componentType": 5126,
      "count": 247,
      "max": [
        0.99963605403900146,
        0.99963605403900146,
        1
      ],
      "min": [
        -0.99963605403900146,
        -0.99963605403900146,
        -1
      ],
      "type": "VEC3"
    },
    {
      "bufferView": 3,
      "byteOffset": 18736,
      "componentType": 5126,
      "count": 247,
      "max": [
        1,
        1,
        0.86141109466552734,
        1
      ],
      "min": [
        -1,
        -1,
        -0.86140596866607666,
        -1
      ],
      "type": "VEC4"
    },
    {
      "bufferView": 1,
      "byteOffset": 9368,
      "componentType": 5126,
      "count": 247,
      "max": [
        0.99311000108718872,
        1
      ],
      "min": [
        0.0021699999924749136,
        0
      ],
      "type": "VEC2"
    },
    {
      "bufferView": 0,
      "byteOffset": 21504,
      "componentType": 5125,
      "count": 1152,
      "max": [
        246
      ],
      "min": [
        0
      ],
      "type": "SCALAR"
    }
  ],
  "asset": {
    "extras": {
      "author": "Mykola_Pirogov (https://sketchfab.com/Mykola_Pirogov)",
      "license": "CC-BY-4.0 (http://creativecommons.org/licenses/by/4.0/)",
      "source": "https://sketchfab.com/3d-models/simple-cartoon-mushrooms-2-4456480d2328427d84e39696336aaf05",
      "title": "Simple cartoon mushrooms #2"
    },
    "generator": "Sketchfab-5.27.0",
    "version": "2.0"
  },
  "bufferViews": [
    {
      "buffer": 0,
      "byteLength": 26112,
      "byteOffset": 0,
      "name": "floatBufferViews",
      "target": 34963
    },
    {
      "buffer": 0,
      "byteLength": 11344,
      "byteOffset": 26112,
      "byteStride": 8,
      "name": "floatBufferViews",
      "target": 34962
    },
    {
      "buffer": 0,
      "byteLength": 34032,
      "byteOffset": 37456,
      "byteStride": 12,
      "name": "floatBufferViews",
      "target": 34962
    },
    {
      "buffer": 0,
      "byteLength": 22688,
      "byteOffset": 71488,
      "byteStride": 16,
      "name": "floatBufferViews",
      "target": 34962
    }
  ],
  "buffers": [
    {
      "byteLength": 94176,
      "uri": "scene.bin"
    }
  ],
  "extensionsRequired": [
    "KHR_materials_pbrSpecularGlossiness"
  ],
  "extensionsUsed": [
    "KHR_materials_pbrSpecularGlossiness"
  ],
  "images": [
    {
      "uri": "textures/Material_diffuse.jpeg"
    },
    {
      "uri": "textures/Material_normal.png"
    }
  ],
  "materials": [
    {
      "doubleSided": true,
      "emissiveFactor": [
        0,
        0,
        0
      ],
      "extensions": {
        "KHR_materials_pbrSpecularGlossiness": {
          "diffuseFactor": [
            1,
            1,
            1,
            1
          ],
          "diffuseTexture": {
            "index": 0,
            "texCoord": 0
          },
          "glossinessFactor": 0.40000000000000002,
          "specularFactor": [
            0,
            0,
            0
          ]
        }
      },
      "name": "Material",
      "normalTexture": {
        "index": 1,
        "scale": 1,
        "texCoord": 0
      }
    }
  ],
  "meshes": [
    {
      "name": "Plane_0",
      "primitives": [
        {
          "attributes": {
            "NORMAL": 1,
            "POSITION": 0,
            "TANGENT": 2,
            "TEXCOORD_0": 3
          },
          "indices": 4,
          "material": 0,
          "mode": 4
        }
      ]
    },
    {
      "name": "Plane.003_0",
      "primitives": [
        {
          "attributes": {
            "NORMAL": 6,
            "POSITION": 5,
            "TANGENT": 7,
            "TEXCOORD_0": 8
          },
          "indices": 9,
          "material": 0,
          "mode": 4
        }
      ]
    },
    {
      "name": "Plane.001_0",
      "primitives": [
        {
          "attributes": {
            "NORMAL": 11,
            "POSITION": 10,
            "TANGENT": 12,
            "TEXCOORD_0": 13
          },
          "indices": 14,
          "material": 0,
          "mode": 4
        }
      ]
    },
    {
      "name": "Plane.002_0",
      "primitives": [
        {
          "attributes": {
            "NORMAL": 16,
            "POSITION": 15,
            "TANGENT": 17,
            "TEXCOORD_0": 18
          },
          "indices": 19,
          "material": 0,
          "mode": 4
        }
      ]
    },
    {
      "name": "Plane.004_0",
      "primitives": [
        {
          "attributes": {
            "NORMAL": 21,
            "POSITION": 20,
            "TANGENT": 22,
            "TEXCOORD_0": 23
          },
          "indices": 24,
          "material": 0,
          "mode": 4
        }
      ]
    },
    {
      "name": "Plane.005_0",
      "primitives": [
        {
          "attributes": {
            "NORMAL": 26,
            "POSITION": 25,
            "TANGENT": 27,
            "TEXCOORD_0": 28
          },
          "indices": 29,
          "material": 0,
          "mode": 4
        }
      ]
    }
  ],
  "nodes": [
    {
      "children": [
        1
      ],
      "name": "RootNode (gltf orientation matrix)",
      "rotation": [
        -0.70710678118654746,
        -0,
        -0,
        0.70710678118654757
      ]
    },
    {
      "children": [
        2
      ],
      "name": "RootNode (model correction matrix)"
    },
    {
      "children": [
        3,
        5,
        7,
        9,
        11,
        13,
        15
      ],
      "name": "Root"
    },
    {
      "children": [
        4
      ],
      "matrix": [
        -0.29086000000000006,
        0.95517000000000007,
        -0.05519000000000001,
        0,
        -0.77110000000000001,
        -0.19988000000000003,
        0.60452000000000006,
        0,
        0.56639000000000006,
        0.21839000000000003,
        0.7946700000000001,
        0,
        4.0762500000000008,
        1.00545,
        5.9038600000000008,
        1
      ],
      "name": "Lamp"
    },
    {
      "name": "Lamp"
    },
    {
      "children": [
        6
      ],
      "matrix": [
        0.93054000000000003,
        0,
        0,
        0,
        0,
        0.93054000000000003,
        0,
        0,
        0,
        0,
        0.93054000000000003,
        0,
        0.70000000000000007,
        0,
        0,
        1
      ],
      "name": "Plane"
    },
    {
      "mesh": 0,
      "name": "Plane_0"
    },
    {
      "children": [
        8
      ],
      "matrix": [
        0.65575000000000017,
        0,
        0,
        0,
        0,
        0.65575000000000017,
        0,
        0,
        0,
        0,
        0.65575000000000017,
        0,
        0.20000000000000001,
        0.70000000000000007,
        0,
        1
      ],
      "name": "Plane.003"
    },
    {
      "mesh": 1,
      "name": "Plane.003_0"
    },
    {
      "children": [
        10
      ],
      "name": "Plane.001"
    },
    {
      "mesh": 2,
      "name": "Plane.001_0"
    },
    {
      "children": [
        12
      ],
      "matrix": [
        0.65575000000000017,
        0,
        0,
        0,
        0,
        0.65575000000000017,
        0,
        0,
        0,
        0,
        0.65575000000000017,
        0,
        -0.70000000000000007,
        -0.5,
        0,
        1
      ],
      "name": "Plane.002"
    },
    {
      "mesh": 3,
      "name": "Plane.002_0"
    },
    {
      "children": [
        14
      ],
      "matrix": [
        0.93054000000000003,
        0,
        0,
        0,
        0,
        0.93054000000000003,
        0,
        0,
        0,
        0,
        0.93054000000000003,
        0,
        -0.80000000000000004,
        0.30000000000000004,
        0,
        1
      ],
      "name": "Plane.004"
    },
    {
      "mesh": 4,
      "name": "Plane.004_0"
    },
    {
      "children": [
        16
      ],
      "matrix": [
        0.93054000000000003,
        0,
        0,
        0,
        0,
        0.93054000000000003,
        0,
        0,
        0,
        0,
        0.93054000000000003,
        0,
        -0,
        -0.70000000000000007,
        0,
        1
      ],
      "name": "Plane.005"
    },
    {
      "mesh": 5,
      "name": "Plane.005_0"
    }
  ],
  "samplers": [
    {
      "magFilter": 9729,
      "minFilter": 9987,
      "wrapS": 10497,
      "wrapT": 10497
    }
  ],
  "scene": 0,
  "scenes": [
    {
      "name": "OSG_Scene",
      "nodes": [
        0
      ]
    }
  ],
  "textures": [
    {
      "sampler": 0,
      "source": 0
    },
    {
      "sampler": 0,
      "source": 1
    }
  ]
}

